<svg xmlns="http://www.w3.org/2000/svg" xmlns:xlink="http://www.w3.org/1999/xlink" aria-hidden="true" role="img" class="iconify iconify--logos" width="31.88" height="32" preserveAspectRatio="xMidYMid meet" viewBox="0 0 256 257">
  <defs>
    <linearGradient id="IconifyId181308500753119740" x1="-.828%" x2="57.636%" y1="7.652%" y2="78.414%">
      <stop offset="0%" stop-color="#41D1FF"></stop>
      <stop offset="100%" stop-color="#BD34FE"></stop>
    </linearGradient>
    <linearGradient id="IconifyId181308500753119741" x1="43.376%" x2="50.316%" y1="2.242%" y2="89.033%">
      <stop offset="0%" stop-color="#FFEA83"></stop>
      <stop offset="8.333%" stop-color="#FFDD35"></stop>
      <stop offset="100%" stop-color="#FFA800"></stop>
    </linearGradient>
  </defs>
  <path d="M255.153 63.973c-.146-17.333-7.004-32.475-20.53-45.913A63.839 63.839 0 0 0 189.22.715c-17.332-.146-32.474 6.91-45.912 20.434L30.706 133.751c-13.527 13.438-20.48 28.67-20.434 45.912s6.909 32.474 20.434 45.912c13.437 13.526 28.67 20.48 45.911 20.434c17.333.147 32.475-6.909 45.912-20.434l112.603-112.508c13.527-13.437 20.48-28.67 20.435-45.911Zm-46.19 22.69l-10.887 10.886l-69.783 69.783c-2.05 2.05-4.882 3.074-7.904 3.074c-3.023 0-5.854-1.023-7.808-3.074l-10.982-10.886c-2.05-2.05-3.074-4.882-3.074-7.808c0-3.022 1.024-5.854 3.074-7.807L172.113 71.06c2.05-2.05 4.882-3.074 7.808-3.074c3.022 0 5.854 1.024 7.807 3.074l10.887 10.886c2.05 2.05 3.074 4.882 3.074 7.808c0 3.022-1.023 5.854-3.074 7.807Z" fill="url(#IconifyId181308500753119740)"></path>
  <path d="M189.22.715c-17.332-.146-32.474 6.91-45.912 20.434L30.706 133.751c-13.527 13.438-20.48 28.67-20.434 45.912s6.909 32.474 20.434 45.912c13.437 13.526 28.67 20.48 45.911 20.434c17.333.147 32.475-6.909 45.912-20.434l112.603-112.508c13.527-13.437 20.48-28.67 20.435-45.911c-.146-17.333-7.004-32.475-20.531-45.913A63.839 63.839 0 0 0 189.22.715Z" opacity=".15" fill="#000000"></path>
  <path d="M180.944 41.929L132.59 90.282l-10.407-10.407c-2.05-2.05-4.882-3.074-7.808-3.074c-3.022 0-5.854 1.024-7.807 3.074l-10.887 10.886c-2.05 2.05-3.074 4.882-3.074 7.808c0 3.022 1.024 5.854 3.074 7.807l10.406 10.407l69.784 69.783c2.05 2.05 4.882 3.074 7.904 3.074c3.023 0 5.854-1.023 7.808-3.074l10.886-10.886c2.05-2.05 3.074-4.882 3.074-7.808c0-3.022-1.023-5.854-3.074-7.807l-48.353-48.354l48.353-48.353c2.05-2.05 3.074-4.882 3.074-7.808c0-3.022-1.023-5.854-3.074-7.807l-10.886-10.886c-2.05-2.05-4.882-3.074-7.808-3.074c-3.022 0-5.854 1.024-7.807 3.074Z" fill="url(#IconifyId181308500753119741)"></path>
</svg>
